<svg xmlns="http://www.w3.org/2000/svg" version="1.1" xmlns:xlink="http://www.w3.org/1999/xlink" xmlns:svgjs="http://svgjs.dev/svgjs" width="1440" height="560" preserveAspectRatio="none" viewBox="0 0 1440 560"><g mask="url(&quot;#SvgjsMask1019&quot;)" fill="none"><rect width="1440" height="560" x="0" y="0" fill="rgba(247, 249, 251, 1)"></rect><path d="M0,656.119C123.998,648.1,153.849,468.156,251.417,391.212C335.284,325.073,466.168,328.495,526.876,240.616C590.322,148.775,606.756,24.894,579.202,-83.277C552.613,-187.66,463.149,-260.344,381.4,-330.485C309.35,-392.304,226.27,-433.807,136.087,-463.469C43.253,-494.003,-54.819,-533.537,-148.184,-504.669C-241.189,-475.912,-300.992,-389.178,-358.417,-310.57C-411.952,-237.288,-458.781,-157.562,-467.731,-67.25C-476.47,20.926,-440.201,103.755,-407.646,186.166C-373.373,272.928,-334.348,354.673,-273.222,425.142C-193.462,517.092,-121.469,663.975,0,656.119" fill="#d6e0ea"></path><path d="M1440 946.017C1527.57 956.767 1617.101 996.02 1698.785 962.677 1784.883 927.5319999999999 1864.944 854.3340000000001 1886.327 763.831 1907.346 674.869 1816.7269999999999 598.146 1806.3690000000001 507.324 1795.5140000000001 412.142 1870.187 310.858 1825.032 226.368 1779.537 141.24200000000002 1673.351 107.69200000000001 1579.894 83.56400000000002 1488.451 59.95600000000002 1389.71 55.398000000000025 1302.42 91.44600000000003 1219.105 125.85300000000001 1169.968 206.786 1112.785 276.466 1057.185 344.21799999999996 987.307 406.38599999999997 973.005 492.856 958.595 579.976 989.954 669.051 1035.318 744.812 1077.785 815.734 1145.0439999999999 866.982 1219.064 903.784 1287.59 937.855 1364.041 936.692 1440 946.017" fill="#ffffff"></path></g><defs><mask id="SvgjsMask1019"><rect width="1440" height="560" fill="#ffffff"></rect></mask></defs></svg>